<svg width="702.96875px" height="172.4px" xmlns="http://www.w3.org/2000/svg" viewBox="-101.484375 -11.200000000000003 702.96875 172.4" style="background: rgb(253, 253, 253);" preserveAspectRatio="xMidYMid"><defs><filter id="editing-extrusion" x="-100%" y="-100%" width="300%" height="300%"><feFlood result="color1" flood-color="#bbcedd"></feFlood><feConvolveMatrix order="8,8" divisor="1" kernelMatrix="1 0 0 0 0 0 0 0 0 1 0 0 0 0 0 0 0 0 1 0 0 0 0 0 0 0 0 1 0 0 0 0 0 0 0 0 1 0 0 0 0 0 0 0 0 1 0 0 0 0 0 0 0 0 1 0 0 0 0 0 0 0 0 1" in="SourceAlpha" result="extrude"></feConvolveMatrix><feComposite in="color1" in2="extrude" result="comp-extrude" operator="in"></feComposite><feOffset dx="4" dy="4" in="comp-extrude" result="offset-extrude"></feOffset><feMerge><feMergeNode in="offset-extrude"></feMergeNode><feMergeNode in="SourceGraphic"></feMergeNode></feMerge></filter></defs><g filter="url(#editing-extrusion)"><g transform="translate(-0.8450027704238892, 117.29000091552734)"><path d="M3.07-23.42L3.07-23.42L3.07-23.42Q3.07-41.57 12.48-52.99L12.48-52.99L12.48-52.99Q22.46-65.38 39.84-65.38L39.84-65.38L39.84-65.38Q52.42-65.38 58.75-59.28L58.75-59.28L58.75-59.28Q65.09-53.18 65.09-40.32L65.09-40.32L65.09-40.32Q65.09-20.74 55.10-9.31L55.10-9.31L55.10-9.31Q45.22 1.92 28.61 1.92L28.61 1.92L28.61 1.92Q15.65 1.92 9.36-4.56L9.36-4.56L9.36-4.56Q3.07-11.04 3.07-23.42ZM28.32-43.30L28.32-43.30L28.32-43.30Q24-26.02 24-12.38L24-12.38L24-12.38Q24-9.12 25.10-7.01L25.10-7.01L25.10-7.01Q26.21-4.90 29.14-4.90L29.14-4.90L29.14-4.90Q32.06-4.90 33.89-6.29L33.89-6.29L33.89-6.29Q35.71-7.68 37.15-10.85L37.15-10.85L37.15-10.85Q39.46-16.03 41.62-27.02L41.62-27.02L41.62-27.02Q43.78-38.02 43.97-42.58L43.97-42.58L43.97-42.58Q44.16-47.14 44.16-50.59L44.16-50.59L44.16-50.59Q44.16-54.05 43.10-56.26L43.10-56.26L43.10-56.26Q42.05-58.46 39.22-58.46L39.22-58.46L39.22-58.46Q36.38-58.46 34.46-56.74L34.46-56.74L34.46-56.74Q30.91-53.47 28.32-43.30ZM110.40 1.92L110.40 1.92L110.40 1.92Q98.78 1.92 98.78-7.10L98.78-7.10L98.78-7.10Q98.88-9.60 99.65-13.82L99.65-13.82L101.38-22.66L101.38-22.66Q103.97-35.14 103.97-37.92L103.97-37.92L103.97-37.92Q103.97-43.49 100.70-43.49L100.70-43.49L100.70-43.49Q95.23-43.49 92.35-29.18L92.35-29.18L86.69 0L67.39 1.92L77.38-49.06L93.12-50.88L91.58-41.47L91.58-41.47Q96.10-50.88 109.92-50.88L109.92-50.88L109.92-50.88Q116.64-50.88 119.47-48.05L119.47-48.05L119.47-48.05Q122.30-45.22 122.30-38.88L122.30-38.88L122.30-38.88Q122.30-32.93 119.23-19.01L119.23-19.01L119.23-19.01Q117.79-12.77 117.79-10.42L117.79-10.42L117.79-10.42Q117.79-8.06 119.09-6.72L119.09-6.72L119.09-6.72Q120.38-5.38 122.30-5.18L122.30-5.18L122.30-5.18Q121.34-1.92 118.03 0L118.03 0L118.03 0Q114.72 1.92 110.40 1.92ZM168.86-16.22L168.86-16.22L168.86-16.22Q171.26-14.59 171.26-10.99L171.26-10.99L171.26-10.99Q171.26-7.39 169.44-5.09L169.44-5.09L169.44-5.09Q167.62-2.78 164.64-1.25L164.64-1.25L164.64-1.25Q158.50 1.92 151.87 1.92L151.87 1.92L151.87 1.92Q145.25 1.92 141.36 0.48L141.36 0.48L141.36 0.48Q137.47-0.96 134.88-3.65L134.88-3.65L134.88-3.65Q129.79-8.74 129.79-18.05L129.79-18.05L129.79-18.05Q129.79-32.54 137.66-41.38L137.66-41.38L137.66-41.38Q146.11-50.88 160.80-50.88L160.80-50.88L160.80-50.88Q169.92-50.88 174.43-47.04L174.43-47.04L174.43-47.04Q177.79-44.16 177.79-39.46L177.79-39.46L177.79-39.46Q177.79-22.56 148.61-22.56L148.61-22.56L148.61-22.56Q148.22-20.06 148.22-17.95L148.22-17.95L148.22-17.95Q148.22-13.54 150.19-11.86L150.19-11.86L150.19-11.86Q152.16-10.18 155.81-10.18L155.81-10.18L155.81-10.18Q159.46-10.18 163.34-11.86L163.34-11.86L163.34-11.86Q167.23-13.54 168.86-16.22ZM149.28-26.69L149.28-26.69L149.28-26.69Q156.10-26.69 160.03-30.91L160.03-30.91L160.03-30.91Q163.97-34.94 163.97-41.38L163.97-41.38L163.97-41.38Q163.97-43.58 163.15-44.78L163.15-44.78L163.15-44.78Q162.34-45.98 160.70-45.98L160.70-45.98L160.70-45.98Q159.07-45.98 157.68-45.36L157.68-45.36L157.68-45.36Q156.29-44.74 154.85-42.62L154.85-42.62L154.85-42.62Q151.30-37.82 149.28-26.69ZM189.22 0L178.18 0L195.55-63.36L215.62-63.36L220.03-27.17L237.89-63.36L254.69-63.36L256.42-15.94L256.42-15.94Q256.80-6.53 261.41-3.65L261.41-3.65L261.41-3.65Q260.35-1.73 257.28 0.10L257.28 0.10L257.28 0.10Q254.21 1.92 250.13 1.92L250.13 1.92L250.13 1.92Q246.05 1.92 243.65 0.77L243.65 0.77L243.65 0.77Q241.25-0.38 239.90-2.30L239.90-2.30L239.90-2.30Q237.50-5.76 237.50-12.38L237.50-12.38L237.50-42.05L218.59 0L206.69 0L199.97-43.10L189.22 0ZM269.71-2.88L269.71-2.88L269.71-2.88Q267.46-5.38 266.45-9.31L266.45-9.31L266.45-9.31Q265.44-13.25 265.44-19.68L265.44-19.68L265.44-19.68Q265.44-26.11 267.65-31.97L267.65-31.97L267.65-31.97Q269.86-37.82 273.89-42.05L273.89-42.05L273.89-42.05Q282.14-50.88 295.78-50.88L295.78-50.88L295.78-50.88Q300.67-50.88 304.22-49.25L304.22-49.25L320.64-50.88L313.54-13.44L313.54-13.44Q313.25-12.29 313.25-10.18L313.25-10.18L313.25-10.18Q313.25-8.06 314.54-6.72L314.54-6.72L314.54-6.72Q315.84-5.38 317.76-5.18L317.76-5.18L317.76-5.18Q316.80-1.92 313.30 0L313.30 0L313.30 0Q309.79 1.92 305.86 1.92L305.86 1.92L305.86 1.92Q301.92 1.92 299.28 0.43L299.28 0.43L299.28 0.43Q296.64-1.06 295.87-3.55L295.87-3.55L295.87-3.55Q294.34-1.15 291.07 0.38L291.07 0.38L291.07 0.38Q287.81 1.92 283.44 1.92L283.44 1.92L283.44 1.92Q279.07 1.92 275.52 0.77L275.52 0.77L275.52 0.77Q271.97-0.38 269.71-2.88ZM289.97-41.86L289.97-41.86L289.97-41.86Q288.86-40.13 287.90-37.20L287.90-37.20L287.90-37.20Q286.94-34.27 285.36-26.45L285.36-26.45L285.36-26.45Q283.78-18.62 283.78-13.06L283.78-13.06L283.78-13.06Q283.78-7.49 284.64-5.86L284.64-5.86L284.64-5.86Q285.50-4.22 287.04-4.22L287.04-4.22L287.04-4.22Q290.11-4.22 292.37-7.15L292.37-7.15L292.37-7.15Q294.62-10.08 295.49-15.26L295.49-15.26L300.58-43.39L300.58-43.39Q298.56-45.12 296.21-45.12L296.21-45.12L296.21-45.12Q293.86-45.12 292.46-44.35L292.46-44.35L292.46-44.35Q291.07-43.58 289.97-41.86ZM366.43 1.92L366.43 1.92L366.43 1.92Q354.82 1.92 354.82-7.10L354.82-7.10L354.82-7.10Q354.91-9.60 355.68-13.82L355.68-13.82L357.41-22.66L357.41-22.66Q360-35.14 360-37.92L360-37.92L360-37.92Q360-43.49 356.74-43.49L356.74-43.49L356.74-43.49Q351.26-43.49 348.38-29.18L348.38-29.18L342.72 0L323.42 1.92L333.41-49.06L349.15-50.88L347.62-41.47L347.62-41.47Q352.13-50.88 365.95-50.88L365.95-50.88L365.95-50.88Q372.67-50.88 375.50-48.05L375.50-48.05L375.50-48.05Q378.34-45.22 378.34-38.88L378.34-38.88L378.34-38.88Q378.34-32.93 375.26-19.01L375.26-19.01L375.26-19.01Q373.82-12.77 373.82-10.42L373.82-10.42L373.82-10.42Q373.82-8.06 375.12-6.72L375.12-6.72L375.12-6.72Q376.42-5.38 378.34-5.18L378.34-5.18L378.34-5.18Q377.38-1.92 374.06 0L374.06 0L374.06 0Q370.75 1.92 366.43 1.92ZM392.83-40.13L392.83-40.13L392.83-40.13Q396.10-44.74 401.04-47.81L401.04-47.81L401.04-47.81Q405.98-50.88 412.03-50.88L412.03-50.88L412.03-50.88Q418.08-50.88 420.96-48.96L420.96-48.96L439.78-50.88L433.25-14.02L433.25-14.02Q429.89 4.80 422.78 12.19L422.78 12.19L422.78 12.19Q415.97 19.20 402.72 19.20L402.72 19.20L402.72 19.20Q392.64 19.20 386.88 16.03L386.88 16.03L386.88 16.03Q381.12 12.86 381.12 7.58L381.12 7.58L381.12 7.58Q381.12 3.65 384.10 1.39L384.10 1.39L384.10 1.39Q387.07-0.86 391.68-0.86L391.68-0.86L391.68-0.86Q395.71-0.86 398.78 0.96L398.78 0.96L398.78 0.96Q400.61 1.92 401.47 3.26L401.47 3.26L401.47 3.26Q399.26 5.18 399.26 8.35L399.26 8.35L399.26 8.35Q399.26 12.48 403.10 12.48L403.10 12.48L403.10 12.48Q409.54 12.48 413.18-2.69L413.18-2.69L413.18-2.69Q414.24-6.82 415.10-10.94L415.10-10.94L415.10-10.94Q410.78-5.66 400.99-5.66L400.99-5.66L400.99-5.66Q394.18-5.66 390.24-8.93L390.24-8.93L390.24-8.93Q386.30-12.19 386.30-19.87L386.30-19.87L386.30-19.87Q386.30-24.67 387.94-30.10L387.94-30.10L387.94-30.10Q389.57-35.52 392.83-40.13ZM405.31-19.58L405.31-19.58L405.31-19.58Q405.31-13.06 408.67-13.06L408.67-13.06L408.67-13.06Q410.98-13.06 413.18-15.55L413.18-15.55L413.18-15.55Q414.91-17.57 415.58-20.54L415.58-20.54L420.48-45.22L420.48-45.22Q420-45.31 419.52-45.50L419.52-45.50L419.52-45.50Q418.56-45.89 417.31-45.89L417.31-45.89L417.31-45.89Q411.46-45.89 408-36.29L408-36.29L408-36.29Q405.31-28.80 405.31-19.58ZM447.70-2.88L447.70-2.88L447.70-2.88Q445.44-5.38 444.43-9.31L444.43-9.31L444.43-9.31Q443.42-13.25 443.42-19.68L443.42-19.68L443.42-19.68Q443.42-26.11 445.63-31.97L445.63-31.97L445.63-31.97Q447.84-37.82 451.87-42.05L451.87-42.05L451.87-42.05Q460.13-50.88 473.76-50.88L473.76-50.88L473.76-50.88Q478.66-50.88 482.21-49.25L482.21-49.25L498.62-50.88L491.52-13.44L491.52-13.44Q491.23-12.29 491.23-10.18L491.23-10.18L491.23-10.18Q491.23-8.06 492.53-6.72L492.53-6.72L492.53-6.72Q493.82-5.38 495.74-5.18L495.74-5.18L495.74-5.18Q494.78-1.92 491.28 0L491.28 0L491.28 0Q487.78 1.92 483.84 1.92L483.84 1.92L483.84 1.92Q479.90 1.92 477.26 0.43L477.26 0.43L477.26 0.43Q474.62-1.06 473.86-3.55L473.86-3.55L473.86-3.55Q472.32-1.15 469.06 0.38L469.06 0.38L469.06 0.38Q465.79 1.92 461.42 1.92L461.42 1.92L461.42 1.92Q457.06 1.92 453.50 0.77L453.50 0.77L453.50 0.77Q449.95-0.38 447.70-2.88ZM467.95-41.86L467.95-41.86L467.95-41.86Q466.85-40.13 465.89-37.20L465.89-37.20L465.89-37.20Q464.93-34.27 463.34-26.45L463.34-26.45L463.34-26.45Q461.76-18.62 461.76-13.06L461.76-13.06L461.76-13.06Q461.76-7.49 462.62-5.86L462.62-5.86L462.62-5.86Q463.49-4.22 465.02-4.22L465.02-4.22L465.02-4.22Q468.10-4.22 470.35-7.15L470.35-7.15L470.35-7.15Q472.61-10.08 473.47-15.26L473.47-15.26L478.56-43.39L478.56-43.39Q476.54-45.12 474.19-45.12L474.19-45.12L474.19-45.12Q471.84-45.12 470.45-44.35L470.45-44.35L470.45-44.35Q469.06-43.58 467.95-41.86Z" fill="#85a2b6"></path></g></g><style>text {
  font-size: 64px;
  font-family: Arial Black;
  dominant-baseline: central;
  text-anchor: middle;
}</style></svg>